# xmcd
#
# Track frame offsets:
#	150
#	13030
#	23242
#	33822
#	47958
#	58873
#	71933
#	85607
#	98298
#	109330
#	126292
#	139254
#
# Disc length: 1972 seconds
# Revision: 0
# Processed by: cddbd v1.5.2PL0 Copyright (c) Steve Scherf et al.
# Submitted via: dBpowerAMP V12.0
#
DISCID=a107b20c
DTITLE=Lorraine Jordan and Carolina Road - Lorraine Jordan and Carolina Road
DYEAR=2013
DGENRE=Country
TTITLE0=That's Kentucky
TTITLE1=Living With the Shades Pulled Down
TTITLE2=Livin' Like I'm Dying
TTITLE3=You Won't Ever Forget Me
TTITLE4=All We Ever Do Is Say Goodbye
TTITLE5=Song of the French Broad
TTITLE6=I Heard You Call His Name Last Night
TTITLE7=Bluegrass Barn
TTITLE8=Hold Me One More Time
TTITLE9=Suitcase of Your Heart
TTITLE10=I Saw the Golden Stairs
TTITLE11=Liza Jane
EXTD=
EXTT0=
EXTT1=
EXTT2=
EXTT3=
EXTT4=
EXTT5=
EXTT6=
EXTT7=
EXTT8=
EXTT9=
EXTT10=
EXTT11=
PLAYORDER=
